<svg width="160" height="160" viewBox="0 0 160 160" fill="none" xmlns="http://www.w3.org/2000/svg">
  <rect width="160" height="160" fill="transparent"/>
  <g fill="#ffffff" fill-opacity="0.08">
    <circle cx="12" cy="18" r="1.2"/>
    <circle cx="36" cy="24" r="1"/>
    <circle cx="58" cy="12" r="0.9"/>
    <circle cx="86" cy="21" r="1.1"/>
    <circle cx="114" cy="16" r="0.85"/>
    <circle cx="142" cy="27" r="1.15"/>
    <circle cx="22" cy="46" r="0.95"/>
    <circle cx="47" cy="39" r="1.25"/>
    <circle cx="70" cy="52" r="0.8"/>
    <circle cx="98" cy="44" r="1"/>
    <circle cx="126" cy="49" r="1.15"/>
    <circle cx="148" cy="41" r="0.9"/>
    <circle cx="9" cy="73" r="0.9"/>
    <circle cx="33" cy="81" r="1.2"/>
    <circle cx="61" cy="76" r="1"/>
    <circle cx="89" cy="68" r="0.85"/>
    <circle cx="117" cy="78" r="1.25"/>
    <circle cx="145" cy="71" r="0.9"/>
    <circle cx="19" cy="106" r="1.1"/>
    <circle cx="41" cy="112" r="0.9"/>
    <circle cx="73" cy="101" r="1.2"/>
    <circle cx="101" cy="108" r="0.8"/>
    <circle cx="129" cy="98" r="1.1"/>
    <circle cx="151" cy="114" r="0.95"/>
    <circle cx="14" cy="136" r="0.85"/>
    <circle cx="38" cy="144" r="1.15"/>
    <circle cx="66" cy="132" r="0.95"/>
    <circle cx="92" cy="147" r="1.2"/>
    <circle cx="122" cy="138" r="0.85"/>
    <circle cx="146" cy="149" r="1"/>
  </g>
  <g fill="#d0bcff" fill-opacity="0.06">
    <rect x="28" y="10" width="1.6" height="1.6" rx="0.8"/>
    <rect x="79" y="33" width="1.4" height="1.4" rx="0.7"/>
    <rect x="134" y="58" width="1.8" height="1.8" rx="0.9"/>
    <rect x="17" y="94" width="1.5" height="1.5" rx="0.75"/>
    <rect x="109" y="124" width="1.7" height="1.7" rx="0.85"/>
    <rect x="63" y="145" width="1.3" height="1.3" rx="0.65"/>
  </g>
</svg>
