<svg width="800" height="800" viewBox="0 0 800 800" fill="none" xmlns="http://www.w3.org/2000/svg">
  <defs>
    <linearGradient id="storeBg" x1="0" y1="0" x2="800" y2="800" gradientUnits="userSpaceOnUse">
      <stop stop-color="#1D0C26"/>
      <stop offset="0.5" stop-color="#140A1B"/>
      <stop offset="1" stop-color="#0B1020"/>
    </linearGradient>
    <radialGradient id="storeGlowA" cx="0" cy="0" r="1" gradientUnits="userSpaceOnUse" gradientTransform="translate(596 206) rotate(142.716) scale(266 186)">
      <stop stop-color="#E11D48" stop-opacity="0.46"/>
      <stop offset="1" stop-color="#E11D48" stop-opacity="0"/>
    </radialGradient>
    <radialGradient id="storeGlowB" cx="0" cy="0" r="1" gradientUnits="userSpaceOnUse" gradientTransform="translate(230 586) rotate(-32.905) scale(290 200)">
      <stop stop-color="#0EA5E9" stop-opacity="0.34"/>
      <stop offset="1" stop-color="#0EA5E9" stop-opacity="0"/>
    </radialGradient>
  </defs>
  <rect width="800" height="800" fill="url(#storeBg)"/>
  <circle cx="596" cy="206" r="224" fill="url(#storeGlowA)"/>
  <circle cx="230" cy="586" r="250" fill="url(#storeGlowB)"/>
  <rect x="173" y="160" width="454" height="480" rx="42" fill="#100916"/>
  <rect x="173.75" y="160.75" width="452.5" height="478.5" rx="41.25" stroke="#FFFFFF" stroke-opacity="0.12" stroke-width="1.5"/>
  <rect x="208" y="196" width="384" height="250" rx="28" fill="#17111F"/>
  <rect x="208.75" y="196.75" width="382.5" height="248.5" rx="27.25" stroke="#FFFFFF" stroke-opacity="0.08" stroke-width="1.5"/>
  <circle cx="400" cy="320" r="84" fill="#8B5CF6" fill-opacity="0.18"/>
  <path d="M347 347C347 315.5 372.5 290 404 290H444C475.5 290 501 315.5 501 347V369H347V347Z" fill="#D0BCFF"/>
  <circle cx="424" cy="268" r="32" fill="#F5D0FE"/>
  <rect x="235" y="486" width="138" height="16" rx="8" fill="#4C2E68"/>
  <rect x="235" y="520" width="248" height="14" rx="7" fill="#2C1D3B"/>
  <rect x="235" y="548" width="212" height="14" rx="7" fill="#2C1D3B"/>
  <rect x="235" y="588" width="102" height="32" rx="16" fill="#E11D48"/>
  <rect x="471" y="486" width="93" height="18" rx="9" fill="#2D1B38"/>
  <rect x="471" y="530" width="93" height="18" rx="9" fill="#2D1B38"/>
  <rect x="471" y="574" width="93" height="18" rx="9" fill="#2D1B38"/>
  <g opacity="0.26" stroke="#FFFFFF">
    <path d="M0 200H800"/>
    <path d="M0 400H800"/>
    <path d="M0 600H800"/>
    <path d="M200 0V800"/>
    <path d="M400 0V800"/>
    <path d="M600 0V800"/>
  </g>
</svg>
